{
  "source": "C:\\Users\\Peter\\Desktop\\stuff\\MIUN\\quantitative_research\\video_compression\\videos\\BVI-HD\\BVI-HD_CDVL_videos\\ORIG\\PlasmaSlowRandom_1920x1080_60fps.mp4",
  "output": "C:\\Users\\Peter\\Desktop\\stuff\\MIUN\\quantitative_research\\video_compression\\compressed_videos\\BVI-HD\\vp9\\1.5\\PlasmaSlowRandom_1920x1080_60fps_vp9.webm",
  "codec": "vp9",
  "ok": "Input #0, mov,mp4,m4a,3gp,3g2,mj2, from 'C:\\Users\\Peter\\Desktop\\stuff\\MIUN\\quantitative_research\\video_compression\\videos\\BVI-HD\\BVI-HD_CDVL_videos\\ORIG\\PlasmaSlowRandom_1920x1080_60fps.mp4':\n  Metadata:\n    major_brand     : isom\n    minor_version   : 512\n    compatible_brands: isomiso2avc1mp41\n    encoder         : Lavf54.28.101\n  Duration: 00:00:05.00, start: 0.000000, bitrate: 23030 kb/s\n  Stream #0:0[0x1](und): Video: h264 (High 4:4:4 Predictive) (avc1 / 0x31637661), yuv420p(progressive), 1920x1080, 23026 kb/s, 60 fps, 60 tbr, 60 tbn (default)\n    Metadata:\n      handler_name    : VideoHandler\n      vendor_id       : [0][0][0][0]\n[out#0/webm @ 000002cf774c4e00] Codec AVOption b:a (set bitrate (in bits/s)) has not been used for any stream. The most likely reason is either wrong type (e.g. a video option with no video streams) or that it is a private option of some decoder which was not actually used for any stream.\nStream mapping:\n  Stream #0:0 -> #0:0 (h264 (native) -> vp9 (libvpx-vp9))\nPress [q] to stop, [?] for help\n[libvpx-vp9 @ 000002cf775cd680] v1.15.2-100-g40561f514\nOutput #0, webm, to 'C:\\Users\\Peter\\Desktop\\stuff\\MIUN\\quantitative_research\\video_compression\\compressed_videos\\BVI-HD\\vp9\\1.5\\PlasmaSlowRandom_1920x1080_60fps_vp9.webm':\n  Metadata:\n    major_brand     : isom\n    minor_version   : 512\n    compatible_brands: isomiso2avc1mp41\n    encoder         : Lavf62.3.100\n  Stream #0:0(und): Video: vp9, yuv420p(tv, progressive), 1920x1080, q=2-31, 1500 kb/s, 60 fps, 1k tbn (default)\n    Metadata:\n      encoder         : Lavc62.11.100 libvpx-vp9\n      handler_name    : VideoHandler\n      vendor_id       : [0][0][0][0]\n    Side data:\n      cpb: bitrate max/min/avg: 0/0/0 buffer size: 1500000 vbv_delay: N/A\nframe=    6 fps=0.0 q=44.0 size=       1KiB time=00:00:00.10 bitrate=  50.6kbits/s speed=0.193x elapsed=0:00:00.51    \nframe=   17 fps= 16 q=39.0 size=       1KiB time=00:00:00.26 bitrate=  19.0kbits/s speed=0.255x elapsed=0:00:01.04    \nframe=   26 fps= 16 q=39.0 size=       1KiB time=00:00:00.43 bitrate=  11.7kbits/s speed=0.273x elapsed=0:00:01.58    \nframe=   37 fps= 18 q=17.0 size=       1KiB time=00:00:00.61 bitrate=   8.2kbits/s speed=0.293x elapsed=0:00:02.10    \nframe=   45 fps= 17 q=42.0 size=       1KiB time=00:00:00.75 bitrate=   6.8kbits/s speed=0.287x elapsed=0:00:02.61    \nframe=   56 fps= 18 q=42.0 size=       1KiB time=00:00:00.93 bitrate=   5.4kbits/s speed=0.298x elapsed=0:00:03.13    \nframe=   65 fps= 18 q=42.0 size=       1KiB time=00:00:01.08 bitrate=   4.7kbits/s speed=0.296x elapsed=0:00:03.65    \nframe=   75 fps= 18 q=42.0 size=       1KiB time=00:00:01.25 bitrate=   4.1kbits/s speed=0.298x elapsed=0:00:04.19    \nframe=   85 fps= 18 q=19.0 size=       1KiB time=00:00:01.41 bitrate=   3.6kbits/s speed=0.301x elapsed=0:00:04.70    \nframe=   95 fps= 18 q=41.0 size=       1KiB time=00:00:01.58 bitrate=   3.2kbits/s speed=0.303x elapsed=0:00:05.23    \nframe=  105 fps= 18 q=43.0 size=       1KiB time=00:00:01.73 bitrate=   2.9kbits/s speed=0.302x elapsed=0:00:05.74    \nframe=  114 fps= 18 q=44.0 size=       1KiB time=00:00:01.90 bitrate=   2.7kbits/s speed=0.304x elapsed=0:00:06.25    \nframe=  124 fps= 18 q=45.0 size=       1KiB time=00:00:02.06 bitrate=   2.5kbits/s speed=0.305x elapsed=0:00:06.77    \nframe=  134 fps= 18 q=45.0 size=     239KiB time=00:00:02.23 bitrate= 878.2kbits/s speed=0.305x elapsed=0:00:07.31    \nframe=  144 fps= 18 q=42.0 size=     239KiB time=00:00:02.40 bitrate= 817.2kbits/s speed=0.306x elapsed=0:00:07.83    \nframe=  154 fps= 18 q=42.0 size=     239KiB time=00:00:02.55 bitrate= 769.1kbits/s speed=0.305x elapsed=0:00:08.34    \nframe=  163 fps= 18 q=43.0 size=     239KiB time=00:00:02.71 bitrate= 722.0kbits/s speed=0.306x elapsed=0:00:08.87    \nframe=  172 fps= 18 q=43.0 size=     239KiB time=00:00:02.86 bitrate= 684.2kbits/s speed=0.306x elapsed=0:00:09.38    \nframe=  181 fps= 18 q=43.0 size=     239KiB time=00:00:03.01 bitrate= 650.2kbits/s speed=0.305x elapsed=0:00:09.89    \nframe=  192 fps= 18 q=41.0 size=     239KiB time=00:00:03.20 bitrate= 612.9kbits/s speed=0.307x elapsed=0:00:10.41    \nframe=  202 fps= 18 q=42.0 size=     239KiB time=00:00:03.36 bitrate= 582.6kbits/s speed=0.308x elapsed=0:00:10.94    \nframe=  212 fps= 18 q=21.0 size=     239KiB time=00:00:03.53 bitrate= 555.1kbits/s speed=0.308x elapsed=0:00:11.46    \nframe=  223 fps= 19 q=42.0 size=     239KiB time=00:00:03.71 bitrate= 527.7kbits/s speed=0.31x elapsed=0:00:11.99    \nframe=  229 fps= 18 q=46.0 size=     239KiB time=00:00:03.81 bitrate= 513.9kbits/s speed=0.305x elapsed=0:00:12.53    \nframe=  237 fps= 18 q=45.0 size=     239KiB time=00:00:03.95 bitrate= 496.5kbits/s speed=0.303x elapsed=0:00:13.05    \nframe=  248 fps= 18 q=41.0 size=     239KiB time=00:00:04.13 bitrate= 474.5kbits/s speed=0.305x elapsed=0:00:13.57    \nframe=  259 fps= 18 q=40.0 size=     256KiB time=00:00:04.31 bitrate= 485.8kbits/s speed=0.306x elapsed=0:00:14.09    \nframe=  268 fps= 18 q=43.0 size=     256KiB time=00:00:04.46 bitrate= 469.5kbits/s speed=0.306x elapsed=0:00:14.61    \nframe=  276 fps= 18 q=42.0 size=     256KiB time=00:00:04.60 bitrate= 455.9kbits/s speed=0.304x elapsed=0:00:15.15    \nframe=  276 fps= 18 q=42.0 size=     256KiB time=00:00:04.60 bitrate= 455.9kbits/s speed=0.294x elapsed=0:00:15.66    \nframe=  276 fps= 17 q=42.0 size=     256KiB time=00:00:04.60 bitrate= 455.9kbits/s speed=0.284x elapsed=0:00:16.18    \n[out#0/webm @ 000002cf774c4e00] video:569KiB audio:0KiB subtitle:0KiB other streams:0KiB global headers:0KiB muxing overhead: 0.484764%\nframe=  300 fps= 18 q=43.0 Lsize=     572KiB time=00:00:05.00 bitrate= 936.6kbits/s speed=0.306x elapsed=0:00:16.35    \n",
  "seconds": 16.517391204833984,
  "probe_out": {}
}